<?xml version="1.0" encoding="UTF-8"?>
<svg width="14px" height="14px" viewBox="0 0 14 14" version="1.1" xmlns="http://www.w3.org/2000/svg" xmlns:xlink="http://www.w3.org/1999/xlink">
    <!-- Generator: Sketch 54.1 (76490) - https://sketchapp.com -->
    <title>about icon</title>
    <desc>Created with Sketch.</desc>
    <g id="01.desktop" stroke="none" stroke-width="1" fill="none" fill-rule="evenodd" opacity="0.5">
        <g id="04.a.BADPRotationJourneys" transform="translate(-447.000000, -775.000000)" fill="#282B3E" fill-rule="nonzero">
            <g id="table" transform="translate(88.000000, 272.000000)">
                <g id="role-legend" transform="translate(32.000000, 500.000000)">
                    <path d="M334,17 C330.134007,17 327,13.8659932 327,10 C327,6.13400675 330.134007,3 334,3 C337.865993,3 341,6.13400675 341,10 C341,13.8659932 337.865993,17 334,17 Z M334,15.9230769 C337.271225,15.9230769 339.923077,13.2712251 339.923077,10 C339.923077,6.72877494 337.271225,4.07692308 334,4.07692308 C330.728775,4.07692308 328.076923,6.72877494 328.076923,10 C328.076923,13.2712251 330.728775,15.9230769 334,15.9230769 Z M333.391538,14.3076923 L333.391538,8.32 L334.608462,8.32 L334.608462,14.3076923 L333.391538,14.3076923 Z M334.005385,7.28615385 C333.585385,7.28615385 333.240769,6.94153846 333.240769,6.52153846 C333.240769,6.11230769 333.585385,5.75692308 334.005385,5.75692308 C334.414615,5.75692308 334.77,6.11230769 334.77,6.52153846 C334.77,6.94153846 334.414615,7.28615385 334.005385,7.28615385 Z" id="about-icon"></path>
                </g>
            </g>
        </g>
    </g>
</svg>