<?xml version="1.0" encoding="UTF-8"?>
<svg width="335px" height="50px" viewBox="0 0 335 50" version="1.1" xmlns="http://www.w3.org/2000/svg" xmlns:xlink="http://www.w3.org/1999/xlink">
    <!-- Generator: Sketch 54.1 (76490) - https://sketchapp.com -->
    <title>logo</title>
    <desc>Created with Sketch.</desc>
    <g id="01.desktop" stroke="none" stroke-width="1" fill="none" fill-rule="evenodd">
        <g id="01.1a.dashboard" transform="translate(-88.000000, -19.000000)" fill="#1A1919">
            <g id="header">
                <g id="logo" transform="translate(88.000000, 19.000000)">
                    <path d="M34.921,22.583 L32.462,22.876 C30.324,23.14 28.45,23.901 28.45,25.717 C28.45,27.005 29.562,27.883 30.998,27.883 C32.696,27.883 34.101,26.771 34.98,25.658 L34.98,22.583 L34.921,22.583 Z M34.951,30.401 L34.951,28.557 C34.072,29.582 32.667,30.782 30.178,30.782 C27.309,30.782 24.936,28.967 24.936,25.863 C24.936,22.086 28.479,20.709 31.935,20.329 L33.282,20.183 C34.599,20.065 35.068,19.333 35.068,18.455 C35.068,17.372 34.043,16.581 32.491,16.581 C30.705,16.581 28.977,17.87 28.333,18.894 L26.284,16.464 C27.542,14.824 29.768,13.682 32.667,13.682 C36.414,13.682 38.581,15.615 38.581,18.835 L38.581,30.401 L34.951,30.401 L34.951,30.401 Z" id="Fill-1"></path>
                    <path d="M45.401,30.401 L41.8,30.401 L41.8,14.063 L45.401,14.063 L45.401,15.908 C46.689,14.736 48.622,13.682 50.73,13.682 C52.663,13.682 55.298,14.795 55.298,18.777 L55.298,30.401 L51.696,30.401 L51.696,19.714 C51.696,18.103 51.023,16.728 49.354,16.728 C47.978,16.728 46.221,17.898 45.401,18.66 L45.401,30.401" id="Fill-2"></path>
                    <path d="M67.971,14.063 L71.572,14.063 L71.572,30.401 L67.853,30.401 L67.853,28.645 C66.858,29.582 65.248,30.782 63.139,30.782 C61.031,30.782 58.103,29.669 58.103,25.57 L58.103,14.063 L61.705,14.063 L61.705,24.399 C61.705,26.302 62.524,27.62 64.223,27.62 C65.628,27.62 66.946,26.712 67.971,25.57 L67.971,14.063" id="Fill-3"></path>
                    <polyline id="Fill-4" points="79.151 30.401 75.549 30.401 75.549 8.909 79.151 5.337 79.151 30.401"></polyline>
                    <path d="M83.131,30.402 L86.879,30.402 L86.879,14.063 L83.131,14.063 L83.131,30.402 Z M85.005,6.713 C86.234,6.713 87.289,7.738 87.289,8.997 C87.289,10.256 86.234,11.311 85.005,11.311 C83.746,11.311 82.691,10.256 82.691,8.997 C82.691,7.738 83.746,6.713 85.005,6.713 L85.005,6.713 Z" id="Fill-5"></path>
                    <path d="M98.296,17.049 L94.871,17.049 L94.871,30.401 L91.269,30.401 L91.269,17.049 L89.074,17.049 L89.074,14.063 L91.269,14.063 L91.269,10.695 C91.269,8.001 92.997,5.571 96.393,5.571 C97.974,5.571 99.292,6.01 100.082,6.42 L98.94,9.231 C98.443,8.938 97.681,8.646 96.949,8.646 C95.808,8.646 94.871,9.495 94.871,10.9 L94.871,14.063 L99.145,14.063 L98.296,17.049" id="Fill-6"></path>
                    <path d="M109.948,20.446 C109.948,18.455 108.689,16.581 106.493,16.581 C104.385,16.581 102.745,18.572 102.687,20.446 L109.948,20.446 Z M102.569,23.199 C102.599,25.834 104.501,27.708 106.756,27.708 C108.455,27.708 110.211,26.566 110.973,25.19 L113.228,27.298 C111.91,29.23 109.362,30.782 106.405,30.782 C101.75,30.782 98.851,27.268 98.851,22.232 C98.851,17.372 101.983,13.682 106.522,13.682 C110.856,13.682 113.901,16.522 113.725,23.199 L102.569,23.199 L102.569,23.199 Z" id="Fill-7"></path>
                    <polyline id="Fill-8" points="4.27 30.401 0.347 30.401 0.347 7.725 4.592 7.725 11.268 18.88 11.327 18.88 17.974 7.725 22.131 7.725 22.131 30.401 18.178 30.401 18.178 14.342 18.12 14.342 11.238 25.762 4.329 14.342 4.27 14.342 4.27 30.401"></polyline>
                    <path d="M325.221,25.201 L325.734,25.196 C326.061,25.195 326.274,25.128 326.274,24.786 C326.274,24.485 326.001,24.396 325.729,24.399 L325.216,24.399 L325.221,25.201 Z M324.784,24.067 L325.793,24.062 C326.4,24.059 326.7,24.301 326.705,24.798 C326.705,25.225 326.439,25.534 326.027,25.534 L326.779,26.698 L326.324,26.698 L325.58,25.535 L325.221,25.538 L325.223,26.708 L324.795,26.708 L324.784,24.067 Z M325.668,27.302 C326.703,27.296 327.478,26.457 327.476,25.377 C327.466,24.297 326.684,23.464 325.647,23.469 C324.598,23.473 323.821,24.313 323.828,25.394 C323.833,26.474 324.616,27.307 325.668,27.302 Z M325.637,23.131 C326.884,23.126 327.902,24.134 327.904,25.377 C327.909,26.617 326.906,27.632 325.658,27.641 C324.419,27.645 323.399,26.634 323.397,25.396 C323.39,24.151 324.399,23.137 325.637,23.131 L325.637,23.131 Z" id="Fill-9"></path>
                    <path d="M224.461,3.343 C224.6,3.204 224.82,3.402 224.642,3.563 C224.542,3.525 224.417,3.388 224.461,3.343 Z M220.084,21.229 C220.28,19.789 218.786,19.676 216.743,22.879 C214.7,25.8 215.751,28.45 218.77,25.165 C219.249,24.525 219.446,24.279 220.235,22.842 C220.901,21.298 220.09,21.807 220.108,21.428 L220.084,21.229 Z M258.541,4.571 C258.465,5.649 257.913,7.647 257.478,8.926 C258.319,8.884 259.88,9.595 260.677,10.272 C262.266,8.051 263.779,6.305 264.949,5.101 C264.052,5.905 260.106,6.838 258.541,4.571 Z M324.595,33.724 C325.941,35.577 326.18,35.698 327.104,36.627 C327.744,37.161 328.907,38.339 329.688,38.874 C334.332,42.047 336.17,38.166 331.633,35.789 C329.988,34.9 328.228,34.229 324.595,33.724 Z M209.195,22.51 C199.752,26.584 193.866,32.079 188.471,39.448 C186.371,42.772 184.273,46.696 186.354,48.322 C189.396,50.027 195.055,47.785 202.027,35.399 C204.682,30.639 207.415,26.032 209.195,22.51 Z M319.566,20.633 C318.412,21.236 317.673,21.66 316.291,24.08 C318.168,23.779 319.778,23.347 320.776,22.106 C322.002,20.424 320.643,20.07 319.566,20.633 Z M302.686,21.426 C303.016,19.548 301.284,19.954 299.116,23.099 C297.589,25.283 298.163,28.87 301.784,24.742 C302.2,24.1 302.435,23.821 302.773,23.143 C303.603,21.542 302.687,22.003 302.707,21.625 L302.686,21.426 Z M271.067,20.883 C269.635,22.605 269.719,22.687 268.841,24.207 C268.169,25.407 268.325,26.191 268.814,26.443 C269.266,26.599 269.772,26.438 270.726,25.517 C271.875,23.996 271.955,23.834 273.103,21.913 C274.367,19.473 272.096,19.523 271.067,20.883 Z M252.619,20.045 L251.737,18.892 C250.026,20.816 248.159,23.101 244.737,25.59 C245.958,26.28 247.546,26.565 249.014,26.326 C251.408,25.841 253.03,23.436 254.181,21.514 L252.619,20.045 Z M262.007,13.057 L257.617,21.861 L257.378,22.299 C258.5,22.774 260.217,23.167 261.054,23.165 C263.314,19.762 263.504,16.019 262.007,13.057 Z M257.165,9.688 C256.088,12.652 254.178,15.909 252.527,17.891 L252.33,18.211 C252.853,19.168 253.697,20.202 254.618,20.755 C256.441,17.834 257.982,14.512 260.283,11.03 C259.72,10.233 257.812,9.7 257.165,9.688 Z M252.739,11.265 C251.508,12.984 251.078,15.183 251.926,17.374 C253.634,15.332 255.576,12.071 256.364,9.612 C255.025,9.625 253.592,10.14 252.739,11.265 Z M327.139,7.03 C325.447,8.519 324.635,9.896 323.521,11.659 L325.237,10.473 C326.344,9.644 326.912,9.124 327.643,8.388 C330.009,5.901 328.132,5.95 327.139,7.03 Z M235.437,7.469 C233.571,9.631 233.017,10.473 232.185,11.993 C233.578,11.31 236.34,8.62 237.156,7.541 C238.146,6.455 237.263,5.363 235.437,7.469 Z M270.899,0.926 C266.96,4.296 265.234,7.199 262.384,12.2 C263.259,13.792 264.035,15.604 264.06,17.643 L265.612,15.24 C268.467,10.878 272.606,5.38 278.371,2.772 C278.371,2.772 278.484,2.856 278.491,2.846 L278.451,3.046 C272.854,6.944 265.982,20.49 264.643,22.671 C268.79,21.095 272.248,17.604 274.296,20.232 L274.77,19.471 C275.049,19.471 276.486,19.465 276.803,19.465 L273.557,25.23 C273.322,25.945 273.605,27.061 275.076,25.336 L275.869,24.378 C277.835,21.814 278.427,20.774 279.483,20.051 C280.079,19.448 282.153,18.92 282.557,20.115 L282.8,20.732 C284.151,20.087 285.445,18.826 286.908,19.777 C287.359,20.254 287.987,20.653 287.156,22.368 C286.289,23.732 286.445,23.532 285.571,24.953 C284.861,26.056 285.126,27.971 288.204,24.561 C290.122,22.03 291.931,18.359 295.947,19.498 C296.564,19.895 296.81,20.174 296.651,20.774 C296.498,21.133 295.885,21.335 295.495,21.15 C294.933,20.899 295.18,19.663 293.738,20.59 C292.566,21.809 291.435,23.712 291.002,24.789 C290.688,25.59 290.808,26.269 291.648,26.544 C292.709,26.617 293.524,25.976 294.272,25.176 C296.903,23.086 298.917,18.606 302.974,19.485 C304.994,20.138 303.727,22.541 306.155,21.11 C308.264,19.941 309.059,18.96 311.737,19.548 C312.25,19.829 312.699,20.263 312.66,20.899 C312.561,21.298 312.422,21.401 312.059,21.547 C310.88,21.908 311.679,19.85 310.039,20.639 C309.042,21.284 308.36,22.541 307.606,23.919 C306.418,25.762 306.965,27.794 309.952,25.665 C311.539,24.519 312.075,23.839 312.732,23.137 C318.516,16.947 318.859,13.095 325.102,7.48 C327.469,4.935 331.101,4.719 328.977,7.883 C328.681,8.245 328.622,8.341 327.788,9.224 C326.01,10.997 324.886,11.633 322.653,12.999 C321.065,15.262 320.096,17.259 318.567,19.743 L318.093,20.718 C319.381,19.916 320.638,19.332 321.12,19.188 C324.29,18.416 324.12,21.01 323.644,21.772 C322.14,23.975 319.461,24.167 317.19,24.616 C319.912,26.398 321.219,28.51 323.488,32.032 C326.604,32.541 328.763,33.328 329.925,33.882 C331.404,34.635 332.287,35.151 333.246,35.944 C337.496,40.238 332.458,42.879 327.114,39.282 C324.71,37.457 323.984,36.304 321.783,33.118 C312.468,31.887 301.224,32.18 293.793,33.102 L293.632,32.944 C299.453,31.363 311.884,30.489 320.655,31.569 C319.609,29.815 317.313,25.271 315.955,24.882 C315.307,25.823 314.41,27.567 314.41,27.567 L311.615,27.567 C312.442,25.965 313.737,23.794 314.407,22.313 C312.858,24.036 311.607,25.377 310.075,26.48 C307.466,28.151 306.224,27.598 305.343,26.726 C304.538,25.41 305.286,23.642 305.721,22.169 C304.893,22.315 305.03,22.805 304.045,22.576 C303.216,24.337 302.822,25.358 301.469,26.459 C299.201,28.187 297.362,27.676 296.597,26.522 C296.295,25.705 296.21,25.363 296.562,23.788 C294.757,25.531 292.572,28.456 289.657,27.232 C288.855,26.835 288.673,26.118 288.602,25.446 C288.604,25.421 288.665,25.118 288.764,24.84 C286.601,27.381 284.31,28.271 283.006,26.921 C282.084,25.827 284.068,23.183 284.523,22.302 L284.739,21.924 C285.592,20.643 283.896,21.008 283.622,21.21 C282.584,21.572 281.69,23.056 280.899,24.516 L279.276,27.567 L276.621,27.567 C277.75,25.487 278.901,23.658 279.972,21.602 C280.033,21.347 280.068,20.507 279.11,21.189 C278.712,21.728 278.174,22.409 277.185,23.732 C276.418,24.754 274.291,28.097 272.253,27.628 C271.333,27.311 271.26,27.076 271.133,26.556 C271.08,26.398 271.201,26.082 271.088,26.193 C270.139,27.002 269.062,27.641 267.701,27.485 C266.964,27.458 266.285,26.795 266.15,26.125 C265.921,24.816 266.568,23.428 267.358,22.338 L267.079,22.417 C266.285,22.842 265.084,23.145 264.211,23.428 C263.378,24.709 262.69,26.219 261.872,27.567 L258.878,27.567 L260.818,23.762 C259.582,23.771 257.82,23.335 257.024,22.902 C255.515,25.624 253.328,27.39 250.498,27.919 C248.063,28.378 245.667,27.151 243.902,26.112 C241.117,28.321 235.769,28.504 238.946,24.218 C239.501,23.335 238.843,24.36 239.598,23.154 C240.022,22.48 239.875,22.797 240.192,22.198 C241.263,20.754 239.245,19.663 237.022,23.349 C236.032,24.911 235.656,25.444 234.408,27.567 L232.06,27.567 C233.24,25.506 234.429,23.618 235.581,21.56 C235.977,20.917 235.652,19.901 234.36,21.324 L234.142,21.602 C233.388,22.563 231.74,24.809 230.667,26.192 C228.564,28.676 225.626,27.551 227.089,24.908 C227.726,23.709 227.763,23.747 228.001,23.268 C228.322,22.687 228.457,22.426 228.555,22.206 C230.003,19.944 226.99,20.319 224.693,24.758 L223.109,27.567 L220.625,27.567 C220.625,27.567 223.685,22.329 225.072,19.768 L224.553,20.131 C223.666,20.937 222.684,21.575 221.498,21.53 C220.977,23.976 219.746,25.378 218.874,26.144 C216.686,28.03 215.009,27.458 214.366,27.079 C213.755,26.544 213.52,25.879 213.483,25.117 C213.562,23.295 214.6,22.133 215.671,20.687 C214.875,20.928 213.838,20.936 212.882,21.297 C211.717,23.46 206.813,34.699 203.324,39.786 C196.301,49.635 187.924,51.07 185.298,48.482 C183.393,46.101 185.526,40.981 189.931,35.249 C194.296,29.922 201.46,24.742 209.731,21.572 C213.06,15.729 217.047,10.342 222.055,5.53 C219.506,6.818 214.757,6.679 212.792,4.95 C213.405,8.721 210.312,12.728 206.885,13.94 C210.066,11.569 212.846,8.324 212.031,4.513 C211.547,3.88 211.23,3.96 210.948,3.124 C210.823,2.047 211.822,2.201 212.268,3.476 C213.23,4.871 215.29,5.663 217.684,5.766 C220.718,5.698 222.472,4.831 224.522,3.284 L224.642,3.563 C219.554,8.335 214.483,17.856 213.339,20.494 C216.93,19.404 219.799,18.752 220.639,19.867 C221.153,20.243 221.06,20.548 221.604,20.86 C222.763,21.254 225.27,18.807 226.815,16.764 C229.596,13.284 230.853,8.845 236.569,5.626 C237.563,5.162 238.962,5.698 237.911,7.457 C236.921,9.059 233.661,11.788 231.868,12.99 C230.411,13.972 228.973,17.478 227.11,20.237 C228.622,19.57 232.591,18.118 231.188,21.698 C230.952,22.259 230.158,23.738 229.447,24.858 C228.732,25.701 229.137,26.937 230.542,25.113 C230.88,24.715 232.064,23.057 232.57,22.431 C234.136,20.485 235.129,18.887 237.206,19.593 C237.746,19.893 237.821,20.674 237.792,21.25 C238.509,20.668 239.247,20.146 240.204,19.743 C240.964,19.479 241.634,19.235 242.437,19.61 C243.518,20.365 242.625,21.908 242.409,22.247 L240.427,25.41 C240.031,26.289 240.313,27.007 241.548,26.643 C242.506,26.28 242.823,26.038 243.4,25.655 C242.88,25.077 242.379,24.583 242.823,24.411 C242.959,24.476 243.938,25.271 243.938,25.271 C246.086,23.67 248.752,21.302 251.412,18.098 C251.006,16.978 250.848,16.743 250.806,15.983 C250.354,13.91 251.372,8.793 256.68,8.812 C256.68,8.812 257.485,6.361 257.509,6.212 C257.741,5.094 258.018,4.255 257.568,2.55 C257.462,2.035 257.434,1.622 257.847,1.46 C258.869,1.55 258.5,2.795 258.792,3.435 C259.05,4.135 259.265,4.633 259.935,4.886 C264.375,6.741 268.225,1.377 270.857,0.725 L270.899,0.926 L270.899,0.926 Z" id="Fill-10"></path>
                    <polyline id="Fill-11" points="153.417 34.654 159.087 28.984 159.087 3.472 153.417 9.142 153.417 34.654"></polyline>
                    <polyline id="Fill-12" points="142.079 34.654 147.749 28.984 147.749 3.472 142.079 9.142 142.079 34.654"></polyline>
                    <polyline id="Fill-13" points="164.756 9.142 164.756 34.654 170.426 28.984 170.426 3.472 164.756 9.142"></polyline>
                </g>
            </g>
        </g>
    </g>
</svg>